#!OML:ASF G:\JayActor3\Patient Classification 1\Patient 1\Session 5\male.ASF
:FULLY-SPECIFIED
:DEGREES
653
root -3.03881 16.9638 -12.163 -443.323 84.5296 -437.47
lowerback 6.89182 -2.26257 6.70943
upperback 1.24773 -2.46456 0.489431
thorax -2.83323 -1.26799 -3.0243
lowerneck -1.10021 -1.34126 0.936206
upperneck 3.96919 -1.89912 3.07459
head 1.43273 -0.867612 0.766208
rclavicle -2.0655e-015 -5.36719e-015
rhumerus -40.6317 -9.81451 -82.37
rradius 23.4329
rwrist 9.21475
rhand -19.1646 -11.6704
rfingers 7.12502
rthumb 7.14625 -41.5298
lclavicle -2.0655e-015 -5.36719e-015
lhumerus -34.5731 28.9298 69.9446
lradius 7.31692
lwrist -1.03308
lhand -25.1456 14.7457
lfingers 7.12502
lthumb 1.37097 44.7211
rfemur -8.46615 -0.857262 34.7064
rtibia 16.7396
rfoot -9.18717 -12.4971
rtoes 11.2801
lfemur -16.9996 16.8641 -7.93905
ltibia 95.3502
lfoot 12.4796 -5.2674
ltoes -5.09204
654
root -2.95219 16.9928 -12.1518 -444.87 84.4129 -438.882
lowerback 7.18746 -2.28822 6.77713
upperback 1.33157 -2.46773 0.527217
thorax -2.91263 -1.26853 -3.01419
lowerneck -1.06527 -1.38221 0.935658
upperneck 3.87883 -1.95236 3.12903
head 1.39943 -0.894925 0.782564
rclavicle 1.00479e-014 -6.16232e-015
rhumerus -40.4252 -9.75196 -82.4721
rradius 23.589
rwrist 9.06712
rhand -19.3466 -11.6331
rfingers 7.12502
rthumb 6.97054 -41.4983
lclavicle 1.00479e-014 -6.16232e-015
lhumerus -34.2576 28.8524 70.1719
lradius 7.29009
lwrist -1.03518
lhand -25.0555 14.8558
lfingers 7.12502
lthumb 1.45795 44.8305
rfemur -7.19888 -0.624928 34.8855
rtibia 15.227
rfoot -8.55158 -13.039
rtoes 11.5586
lfemur -20.3667 17.4985 -7.30442
ltibia 99.9447
lfoot 10.6849 -5.20288
ltoes -4.61878
655
root -2.86725 17.0215 -12.1394 -446.369 84.2935 -440.283
lowerback 7.44464 -2.31122 6.83051
upperback 1.40485 -2.47104 0.565648
thorax -2.98079 -1.26905 -2.99647
lowerneck -1.02219 -1.42333 0.940236
upperneck 3.78613 -2.00576 3.19191
head 1.36413 -0.922196 0.800762
rclavicle 5.6708e-015 9.34288e-015
rhumerus -40.242 -9.67167 -82.58
rradius 23.7692
rwrist 8.90733
rhand -19.5337 -11.5735
rfingers 7.12502
rthumb 6.78999 -41.4447
lclavicle 5.6708e-015 9.34288e-015
lhumerus -33.9612 28.7683 70.3897
lradius 7.259
lwrist -1.00897
lhand -24.9799 14.9304
lfingers 7.12502
lthumb 1.53099 44.9047
rfemur -5.90086 -0.39935 35.0742
rtibia 13.5745
rfoot -7.877 -13.5891
rtoes 11.7654
lfemur -23.7679 18.3213 -6.60963
ltibia 104.45
lfoot 8.76924 -5.21843
ltoes -3.94688
656
root -2.78335 17.0494 -12.1265 -447.764 84.1637 -441.61
lowerback 7.66704 -2.33338 6.87857
upperback 1.46517 -2.4758 0.608539
thorax -3.04267 -1.27049 -2.97183
lowerneck -0.964251 -1.46228 0.945542
upperneck 3.68681 -2.05581 3.26344
head 1.32436 -0.947892 0.8217
rclavicle -2.05813e-014 1.0138e-014
rhumerus -40.0813 -9.5747 -82.684
rradius 23.9598
rwrist 8.75815
rhand -19.7011 -11.499
rfingers 7.12502
rthumb 6.6284 -41.3753
lclavicle -2.05813e-014 1.0138e-014
lhumerus -33.7053 28.6847 70.5897
lradius 7.24058
lwrist -0.955811
lhand -24.9256 14.908
lfingers 7.12502
lthumb 1.58345 44.8819
rfemur -4.54813 -0.192294 35.2778
rtibia 11.7508
rfoot -7.14081 -14.1269
rtoes 11.933
lfemur -27.1674 19.3694 -5.82841
ltibia 108.847
lfoot 6.77104 -5.40668
ltoes -3.12924
657
root -2.70024 17.0758 -12.1138 -448.787 84.0198 -442.593
lowerback 7.86502 -2.34953 6.9269
upperback 1.51047 -2.4737 0.658656
thorax -3.1055 -1.26899 -2.94108
lowerneck -0.899121 -1.49771 0.950968
upperneck 3.59466 -2.10099 3.33649
head 1.28567 -0.97111 0.843244
rclavicle -1.46798e-014 2.56432e-014
rhumerus -39.9429 -9.45653 -82.7764
rradius 24.1564
rwrist 8.61326
rhand -19.8259 -11.4312
rfingers 7.12502
rthumb 6.50786 -41.3112
lclavicle -1.46798e-014 2.56432e-014
lhumerus -33.511 28.6093 70.7641
lradius 7.24859
lwrist -0.880371
lhand -24.9151 14.8202
lfingers 7.12502
lthumb 1.59361 44.794
rfemur -3.11012 -0.482755 35.524
rtibia 9.71293
rfoot -6.2278 -14.1588
rtoes 12.0662
lfemur -30.5202 20.7252 -4.92336
ltibia 113.124
lfoot 4.69776 -5.85548
ltoes -2.4141
658
root -2.61777 17.1 -12.102 -449.373 83.8759 -443.156
lowerback 8.04779 -2.3573 6.96331
upperback 1.54351 -2.46211 0.712777
thorax -3.17092 -1.26316 -2.90085
lowerneck -0.832646 -1.53022 0.95893
upperneck 3.51539 -2.14234 3.40556
head 1.25077 -0.992286 0.863226
rclavicle 1.28899e-015 6.36111e-015
rhumerus -39.8208 -9.32917 -82.8487
rradius 24.3486
rwrist 8.46857
rhand -19.8969 -11.3933
rfingers 7.12502
rthumb 6.43933 -41.2754
lclavicle 1.28899e-015 6.36111e-015
lhumerus -33.3853 28.5433 70.9103
lradius 7.29029
lwrist -0.798291
lhand -24.8985 14.5852
lfingers 7.12502
lthumb 1.60958 44.5589
rfemur -1.52001 -0.735669 35.744
rtibia 7.35895
rfoot -5.18362 -14.194
rtoes 12.1606
lfemur -33.7722 22.4754 -3.85574
ltibia 117.277
lfoot 2.52445 -6.64638
ltoes -1.96945
659
root -2.53681 17.1213 -12.0911 -449.577 83.7435 -443.352
lowerback 8.22915 -2.35872 6.97744
upperback 1.5656 -2.44365 0.768725
thorax -3.24526 -1.25435 -2.84693
lowerneck -0.78039 -1.5576 0.972665
upperneck 3.45751 -2.17755 3.4669
head 1.22485 -1.00998 0.879866
rclavicle -9.93147e-015 7.35503e-015
rhumerus -39.7051 -9.21432 -82.8907
rradius 24.5248
rwrist 8.33309
rhand -19.9276 -11.3907
rfingers 7.12502
rthumb 6.40969 -41.2737
lclavicle -9.93147e-015 7.35503e-015
lhumerus -33.3206 28.4916 71.03
lradius 7.36524
lwrist -0.726537
lhand -24.9098 14.4009
lfingers 7.12502
lthumb 1.59866 44.3747
rfemur 0.429082 -0.95065 35.9197
rtibia 4.30003
rfoot -3.82085 -14.2548
rtoes 12.2428
lfemur -36.8863 24.7222 -2.57255
ltibia 121.315
lfoot 0.243591 -7.82658
ltoes -1.81422
660
root -2.45708 17.1396 -12.0814 -449.353 83.6326 -443.127
lowerback 8.41462 -2.34983 6.96646
upperback 1.58026 -2.4134 0.81973
thorax -3.32764 -1.23999 -2.78532
lowerneck -0.74512 -1.58414 0.98907
upperneck 3.41909 -2.21245 3.52411
head 1.2079 -1.02708 0.894699
rclavicle 9.82586e-015 1.35174e-014
rhumerus -39.5975 -9.12687 -82.9011
rradius 24.6824
rwrist 8.20282
rhand -19.9328 -11.4212
rfingers 7.12502
rthumb 6.40473 -41.3043
lclavicle 9.82586e-015 1.35174e-014
lhumerus -33.3086 28.4473 71.1223
lradius 7.46603
lwrist -0.680581
lhand -24.9039 14.2553
lfingers 7.12502
lthumb 1.60441 44.229
rfemur 3.033 -1.12181 36.023
rtibia -3.57812e-015
rfoot -1.88323 -14.3627
rtoes 12.3106
lfemur -39.7687 27.5947 -0.986657
ltibia 125.234
lfoot -2.24404 -9.39112
ltoes -2.14383
661
root -2.3786 17.1553 -12.0726 -448.81 83.5511 -442.584
lowerback 8.61081 -2.33263 6.92475
upperback 1.59005 -2.37448 0.860326
thorax -3.41946 -1.2216 -2.71811
lowerneck -0.729837 -1.61281 1.01103
upperneck 3.39846 -2.25119 3.57913
head 1.19995 -1.04556 0.907754
rclavicle 2.49102e-015 -2.64384e-014
rhumerus -39.4967 -9.08763 -82.879
rradius 24.8108
rwrist 8.09123
rhand -19.9332 -11.4742
rfingers 7.12502
rthumb 6.40427 -41.3574
lclavicle 2.49102e-015 -2.64384e-014
lhumerus -33.3349 28.4058 71.1881
lradius 7.5827
lwrist -0.676027
lhand -24.9321 14.1984
lfingers 7.12502
lthumb 1.57715 44.1724
rfemur 3.34615 -1.25326 36.1488
rtibia 1.98785e-015
rfoot -2.03178 -14.1924
rtoes 12.3836
lfemur -42.2853 31.2376 1.04799
ltibia 129.036
lfoot -4.92497 -11.3495
ltoes -2.61246
662
root -2.30047 17.1688 -12.0645 -448.005 83.499 -441.774
lowerback 8.81463 -2.30782 6.85114
upperback 1.59939 -2.32863 0.88889
thorax -3.51464 -1.19967 -2.64642
lowerneck -0.728212 -1.64217 1.03658
upperneck 3.38591 -2.29158 3.63855
head 1.19694 -1.06446 0.921488
rclavicle 2.10308e-014 8.94531e-015
rhumerus -39.404 -9.10358 -82.8267
rradius 24.9057
rwrist 8.00873
rhand -19.9433 -11.5333
rfingers 7.12502
rthumb 6.39452 -41.4168
lclavicle 2.10308e-014 8.94531e-015
lhumerus -33.3833 28.3651 71.2302
lradius 7.69578
lwrist -0.71135
lhand -24.892 14.2017
lfingers 7.12502
lthumb 1.61586 44.1753
rfemur 3.66941 -1.3562 36.2395
rtibia 9.54166e-015
rfoot -2.21261 -14.0193
rtoes 12.4591
lfemur -44.1905 35.7982 3.78647
ltibia 132.708
lfoot -7.93247 -13.6936
ltoes -3.26043
663
root -2.2221 17.1805 -12.0567 -446.967 83.4767 -440.723
lowerback 9.02342 -2.27551 6.74411
upperback 1.60839 -2.27676 0.904269
thorax -3.61172 -1.1746 -2.57064
lowerneck -0.731504 -1.67487 1.06485
upperneck 3.37509 -2.33671 3.70236
head 1.19545 -1.08552 0.936048
rclavicle -6.83322e-016 6.55989e-015
rhumerus -39.328 -9.1692 -82.7503
rradius 24.9685
rwrist 7.95959
rhand -19.9826 -11.5715
rfingers 7.12502
rthumb 6.35661 -41.4561
lclavicle -6.83322e-016 6.55989e-015
lhumerus -33.4486 28.3228 71.2496
lradius 7.79819
lwrist -0.794683
lhand -24.7992 14.2961
lfingers 7.12502
lthumb 1.70549 44.269
rfemur 4.0089 -1.43507 36.2929
rtibia 1.98785e-015
rfoot -2.43109 -13.8442
rtoes 12.5603
lfemur -45.0627 41.3955 7.65795
ltibia 136.239
lfoot -11.4705 -16.3883
ltoes -4.10008
664
root -2.1428 17.1909 -12.0492 -445.74 83.483 -439.468
lowerback 9.23712 -2.23835 6.60415
upperback 1.62015 -2.22265 0.907074
thorax -3.70788 -1.14804 -2.49002
lowerneck -0.733388 -1.70833 1.09401
upperneck 3.35789 -2.38272 3.77054
head 1.1918 -1.10707 0.95183
rclavicle -3.38369e-014 3.75703e-014
rhumerus -39.268 -9.27428 -82.6556
rradius 25.0008
rwrist 7.94529
rhand -20.0425 -11.5841
rfingers 7.12502
rthumb 6.29878 -41.4705
lclavicle -3.38369e-014 3.75703e-014
lhumerus -33.5216 28.2829 71.2491
lradius 7.87792
lwrist -0.918129
lhand -24.6274 14.3769
lfingers 7.12502
lthumb 1.87141 44.3484
rfemur 4.37402 -1.49702 36.3075
rtibia -6.36111e-015
rfoot -2.68924 -13.666
rtoes 12.6878
lfemur -44.1153 48 13.428
ltibia 139.606
lfoot -15.7359 -19.3331
ltoes -4.92165
665
root -2.06167 17.2004 -12.0419 -444.312 83.5077 -437.994
lowerback 9.45048 -2.19772 6.44054
upperback 1.63606 -2.16776 0.899812
thorax -3.79914 -1.12058 -2.40714
lowerneck -0.727332 -1.74121 1.12411
upperneck 3.32972 -2.42737 3.84015
head 1.18336 -1.12821 0.967981
rclavicle 2.68887e-014 -9.54166e-015
rhumerus -39.2251 -9.40085 -82.5529
rradius 25.0078
rwrist 7.95367
rhand -20.1031 -11.59
rfingers 7.12502
rthumb 6.24025 -41.4781
lclavicle 2.68887e-014 -9.54166e-015
lhumerus -33.6051 28.248 71.2255
lradius 7.93708
lwrist -1.0607
lhand -24.4171 14.4597
lfingers 7.12502
lthumb 2.07457 44.4293
rfemur 4.77194 -1.5423 36.2914
rtibia 9.74045e-015
rfoot -2.98642 -13.4806
rtoes 12.8416
lfemur -39.8945 55.2329 22.4986
ltibia 142.776
lfoot -20.9818 -22.2617
ltoes -5.78928
666
root -1.97809 17.2098 -12.035 -442.655 83.541 -436.263
lowerback 9.66706 -2.15392 6.26593
upperback 1.65759 -2.111 0.88309
thorax -3.88634 -1.0918 -2.32851
lowerneck -0.70692 -1.771 1.16061
upperneck 3.28965 -2.46701 3.90429
head 1.16846 -1.14727 0.981523
rclavicle 1.8077e-015 6.36111e-015
rhumerus -39.203 -9.53147 -82.4526
rradius 24.9953
rwrist 7.98091
rhand -20.151 -11.5955
rfingers 7.12502
rthumb 6.19401 -41.485
lclavicle 1.8077e-015 6.36111e-015
lhumerus -33.7002 28.2174 71.1773
lradius 7.97916
lwrist -1.19202
lhand -24.131 14.5106
lfingers 7.12502
lthumb 2.35085 44.4774
rfemur 5.21353 -1.56977 36.25
rtibia 1.59028e-014
rfoot -3.32274 -13.2819
rtoes 13.0183
lfemur -30.0291 62.0132 37.118
ltibia 145.708
lfoot -27.2326 -24.7312
ltoes -6.62377
